<svg xmlns="http://www.w3.org/2000/svg" width="512" height="512" viewBox="0 0 512 512" version="1.1">
	<path d="M 233 15.045 C 169.063 22.947, 109.899 53.554, 72.900 97.867 C 35.717 142.401, 16.386 201.900, 20.821 258.162 C 23.685 294.484, 34.276 326.851, 54.721 361.764 L 60.731 372.027 59.369 377.764 C 57.772 384.490, 58.372 388.594, 61.172 390.092 C 63.675 391.431, 67.811 389.894, 71.087 386.408 L 73.371 383.976 74.666 387.056 C 75.378 388.750, 76.434 394.043, 77.014 398.818 C 78.857 414.019, 81.061 417.100, 87.642 413.676 C 92.185 411.314, 94.204 408.515, 104.004 391 C 128.726 346.817, 138.892 333.032, 150.560 327.870 C 156.410 325.283, 170.859 323.474, 178.217 324.409 C 183.009 325.018, 184.709 325.824, 188.717 329.387 C 191.348 331.726, 195.666 335.111, 198.313 336.911 C 200.960 338.711, 203.525 341.154, 204.013 342.341 C 205.088 344.959, 208 371.041, 208 378.050 C 208 382.488, 207.560 383.542, 204.250 387.043 C 201.095 390.379, 199.246 391.325, 192.590 393.004 C 181.185 395.882, 169.046 395.710, 160.332 392.547 C 156.615 391.197, 153.407 390.260, 153.203 390.464 C 152.999 390.667, 153.770 392.953, 154.916 395.544 C 156.062 398.135, 157 401.344, 157 402.675 C 157 408.421, 147.504 412.635, 136.542 411.755 C 129.389 411.181, 119.612 406.547, 109.586 398.977 C 106.563 396.695, 103.659 395.092, 103.134 395.417 C 101.609 396.360, 94.913 409.050, 95.467 409.947 C 95.744 410.395, 100.055 413.559, 105.047 416.978 C 110.361 420.618, 114.515 424.225, 115.069 425.681 C 116.915 430.537, 112.914 435.635, 99.398 445.647 L 96.500 447.794 100.679 451.414 C 102.978 453.405, 105.868 456.714, 107.103 458.767 C 108.337 460.820, 109.494 462.687, 109.672 462.915 C 109.851 463.144, 113.035 460.398, 116.749 456.813 C 125.874 448.004, 130.468 445.763, 140.500 445.228 C 148.247 444.815, 148.963 444.978, 163.126 450.360 C 189.004 460.194, 210.964 465.854, 233.500 468.498 C 240.321 469.299, 243 470.431, 243 472.512 C 243 475.107, 238.754 476.707, 220.500 480.991 C 210.600 483.315, 202.121 485.569, 201.657 486.001 C 200.724 486.870, 201.704 488.989, 206.605 496.698 L 209.909 501.897 215.985 499.428 C 226.339 495.221, 252.797 489.279, 275.647 486.030 C 287.666 484.321, 305.150 481.374, 314.500 479.481 C 330.414 476.259, 367.490 466.843, 368.589 465.744 C 369.429 464.904, 364.188 454.009, 362.663 453.424 C 361.873 453.121, 353.009 454.935, 342.965 457.454 C 332.921 459.974, 324.475 461.808, 324.196 461.529 C 323.918 461.251, 327.022 459.574, 331.095 457.803 C 383.589 434.981, 419.474 406.430, 445.825 366.521 C 464.450 338.313, 477.834 302.190, 481.949 269.026 C 484.408 249.206, 482.757 219.537, 477.971 197.553 C 465.738 141.357, 436.606 93.906, 395.249 62.813 C 354.140 31.907, 307.727 15.505, 258.500 14.489 C 248.600 14.285, 237.125 14.535, 233 15.045 M 226 32.090 C 198.116 35.676, 162.144 48.510, 136.412 64.053 C 84.003 95.709, 49.819 146.115, 38.450 208.500 C 35.927 222.343, 35.396 253.700, 37.438 268.317 C 40.590 290.888, 47.206 312.318, 57.407 333 C 63.870 346.102, 70.805 358, 71.980 358 C 73.121 358, 90.948 338.399, 101.223 325.846 C 109.268 316.018, 113.524 313.045, 121.965 311.357 C 123.610 311.028, 125.491 310.114, 126.145 309.325 C 127.409 307.802, 117.201 311.293, 110.973 314.514 C 101.700 319.309, 90.767 321.367, 88.200 318.800 C 86.212 316.812, 86.787 310.775, 89.255 307.730 C 90.490 306.207, 96.900 300.356, 103.500 294.728 C 113.682 286.045, 115.986 283.528, 118.706 278.115 C 122.559 270.447, 135.334 253.418, 148.142 238.875 C 153.289 233.031, 163.326 221.556, 170.447 213.375 C 189.550 191.426, 210.656 170.755, 225.500 159.456 C 232.877 153.840, 246.502 141.746, 257 131.495 C 276.928 112.036, 284.520 106.024, 296.089 100.543 C 318.340 90.001, 339.639 90.470, 362.337 102.002 C 367.748 104.751, 373.083 107, 374.193 107 C 375.303 107, 377.486 105.928, 379.043 104.617 C 381.488 102.560, 382.463 102.339, 386.187 102.997 C 392.192 104.059, 414 105.215, 414 104.471 C 414 102.673, 407.237 94.536, 399.871 87.471 C 390.401 78.388, 377.513 69.125, 361.764 60.084 C 336.711 45.702, 311.830 36.858, 284.381 32.578 C 273.355 30.859, 237.878 30.562, 226 32.090 M 318.306 104.505 C 309.609 106.395, 295.949 113.046, 287.052 119.722 C 282.898 122.839, 272.300 132.407, 263.500 140.985 C 254.700 149.563, 241.650 161.121, 234.500 166.669 C 214.147 182.461, 209.992 187.304, 210.006 195.218 C 210.018 202.452, 214.014 210.332, 219.033 213.018 C 220.033 213.553, 227.747 215.378, 236.175 217.073 C 254.557 220.771, 263.167 220.730, 270.007 216.910 C 275.977 213.576, 278.462 209.935, 278.258 204.821 C 278.053 199.673, 273.537 192.066, 269.460 190 L 266.500 188.500 272.764 188.202 C 276.447 188.027, 280.154 188.438, 281.764 189.202 C 285.661 191.051, 288.240 197.062, 288.786 205.571 C 289.675 219.424, 283.334 233.323, 269.500 247.844 C 251.329 266.917, 225.640 282.371, 198.500 290.558 C 185.130 294.590, 185 294.674, 185 299.223 C 185 304.831, 189.549 313.412, 196.431 320.786 C 201.280 325.982, 204.197 328.026, 212.431 331.998 C 226.084 338.584, 234.990 340.419, 249.890 339.714 C 264.211 339.036, 272.820 336.711, 287.552 329.543 C 316.866 315.279, 341.617 288.191, 353.377 257.500 C 361.737 235.681, 362.073 217.422, 354.567 192.811 C 351.446 182.580, 351.222 174.425, 353.918 169.210 C 354.973 167.170, 358.123 161.716, 360.918 157.090 C 363.713 152.465, 366 147.944, 366 147.044 C 366 146.144, 364.437 142.953, 362.526 139.954 C 360.615 136.954, 359.040 133.843, 359.026 133.040 C 359.012 132.238, 361.025 129.722, 363.500 127.450 C 366.075 125.085, 368 122.426, 368 121.232 C 368 118.458, 362.163 113.722, 353.500 109.468 C 340.658 103.161, 330.851 101.779, 318.306 104.505 M 399.453 116.021 C 391.662 116.485, 386.323 117.299, 384.338 118.325 C 381.598 119.742, 378 125.128, 378 127.812 C 378 128.368, 376.615 129.987, 374.923 131.411 C 371.215 134.531, 371.467 134.575, 378.096 131.962 C 386.079 128.816, 401.727 125, 406.649 125 C 411.034 125, 419 128.187, 419 129.941 C 419 130.436, 417.538 131.151, 415.750 131.530 C 409.050 132.951, 393.305 138.339, 388 141.025 C 381.363 144.387, 377.772 148.002, 375.111 154 C 374.013 156.475, 370.840 162.550, 368.060 167.500 C 365.279 172.450, 363.004 177.682, 363.002 179.127 C 363.001 180.572, 364.332 186.082, 365.960 191.371 C 375.625 222.768, 373.780 244.545, 358.919 274.500 C 340.560 311.505, 305.493 340.346, 268.500 348.866 C 263.550 350.007, 257.292 351.291, 254.593 351.720 L 249.685 352.500 263.805 365.118 L 277.926 377.737 291.213 378.229 C 306.768 378.804, 311.352 380.257, 316.464 386.229 C 322.048 392.753, 323.002 402.770, 318.669 409.383 C 316.760 412.297, 308.277 418, 305.853 418 C 304.344 418, 304.204 417.593, 304.998 415.506 C 305.519 414.135, 306.649 411.940, 307.508 410.629 C 311.593 404.394, 311.112 396.806, 306.395 393.096 C 303.987 391.202, 295.476 389.190, 294.404 390.262 C 294.128 390.539, 295.042 392.447, 296.436 394.501 C 301.406 401.825, 302.219 409.290, 298.718 415.470 C 294.849 422.301, 286.106 426.478, 280.098 424.366 C 277.982 423.621, 277.500 422.815, 277.500 420.014 C 277.500 416.390, 278.868 415.247, 285.500 413.330 C 289.211 412.258, 290.031 408.077, 287.466 403.309 C 285.627 399.891, 283 398.189, 283 400.415 C 283 402.272, 275.767 408.653, 271.772 410.320 C 262.706 414.105, 256.676 413.119, 253.500 407.334 C 252.400 405.330, 249.592 402.130, 247.260 400.224 L 243.020 396.757 245.997 402.629 C 251.459 413.400, 249.661 422.942, 241.078 428.726 C 235.622 432.403, 234.718 431.789, 237.015 425.963 C 238.107 423.193, 239 419.210, 239 417.113 C 239 410.521, 231.535 402.442, 223.750 400.609 C 222.238 400.253, 221 400.367, 221 400.862 C 221 401.357, 222.989 402.263, 225.419 402.875 C 229.040 403.787, 229.946 404.486, 230.433 406.744 C 231.790 413.040, 227.374 420.672, 220.427 424.035 C 212.790 427.732, 202 425.350, 202 419.967 C 202 416.943, 204.619 415.780, 210.603 416.150 C 215.754 416.469, 216.438 416.263, 218.251 413.850 C 220.459 410.911, 219.835 408.062, 217.422 410.065 C 216.604 410.744, 214.667 410.974, 212.761 410.618 C 207.145 409.569, 179.711 415.425, 171.554 419.413 C 162.840 423.673, 159.507 426.273, 160.256 428.226 C 161.180 430.633, 178.123 438.813, 190.765 442.954 C 245.669 460.943, 299.435 456.996, 349 431.340 C 398.694 405.616, 432.970 368.275, 452.972 318.071 C 476.285 259.555, 469.715 190.664, 435.045 130.079 C 428.500 118.641, 426.732 117.098, 418.873 115.962 C 415.368 115.455, 412.275 115.099, 412 115.172 C 411.725 115.244, 406.079 115.626, 399.453 116.021 M 336.647 119.512 C 327.535 122.015, 324.673 127.671, 328.960 134.701 C 333.149 141.573, 344.282 143.172, 349.765 137.690 C 354.482 132.973, 353.011 121.693, 347.343 119.110 C 344.360 117.751, 342.851 117.808, 336.647 119.512 M 214 213.744 C 213.175 214.067, 209.575 216.147, 206 218.367 C 202.425 220.587, 196.350 224.101, 192.500 226.175 C 188.650 228.250, 186.250 229.959, 187.167 229.974 C 189.701 230.014, 196.590 226.755, 205.851 221.137 C 210.443 218.351, 215.063 215.798, 216.115 215.463 C 217.168 215.129, 217.771 214.438, 217.456 213.928 C 216.823 212.904, 216.230 212.873, 214 213.744 M 197.940 233.985 C 191.032 237.241, 181.582 241.001, 176.940 242.342 C 170.492 244.203, 168.500 245.192, 168.500 246.530 C 168.500 252.125, 177.082 250.014, 200 238.781 C 207.975 234.872, 214.677 231.533, 214.893 231.361 C 215.574 230.818, 212.807 227.998, 211.628 228.033 C 211.007 228.051, 204.848 230.730, 197.940 233.985 M 221.450 236.805 C 218.883 238.980, 186.768 253.525, 173.847 258.364 C 160.889 263.218, 150.423 267.829, 152.076 267.956 C 152.393 267.980, 162.968 264.382, 175.576 259.959 C 213.848 246.535, 235.375 236, 224.533 236 C 223.360 236, 221.972 236.362, 221.450 236.805 M 227.490 245.120 C 213.633 253.300, 199.020 259.510, 168.500 270.190 C 149.123 276.970, 144.295 278.906, 146.605 278.970 C 148.641 279.026, 204.615 259.294, 215.912 254.538 C 224.575 250.891, 236.995 243.719, 236.653 242.563 C 236.075 240.612, 234.275 241.114, 227.490 245.120 M 234.458 251.131 C 222.803 257.806, 216.334 262.278, 217.684 262.728 C 218.783 263.094, 238.638 252.638, 244.982 248.352 C 248.331 246.090, 248.367 246, 245.940 246 C 244.552 246, 239.385 248.309, 234.458 251.131 M 239 255.804 C 228.103 261.957, 226 263.317, 226 264.209 C 226 265.300, 228.763 264.112, 236.236 259.808 C 242.297 256.317, 249.280 251.109, 248 251.034 C 247.725 251.018, 243.675 253.164, 239 255.804 M 212 260.500 C 209.525 261.825, 207.855 262.930, 208.290 262.955 C 209.352 263.016, 217 259.086, 217 258.480 C 217 257.817, 217.041 257.800, 212 260.500 M 183 276.558 C 176.675 278.461, 168.125 280.857, 164 281.883 C 159.875 282.910, 153.249 284.721, 149.275 285.909 C 145.302 287.097, 139.002 288.714, 135.275 289.503 L 128.500 290.936 134.500 290.509 C 140.382 290.091, 150.991 287.410, 180 279.012 C 194.288 274.876, 199.241 273.039, 196 273.079 C 195.175 273.089, 189.325 274.655, 183 276.558 M 164.500 299.115 C 162.850 299.633, 157.541 300.891, 152.703 301.909 C 147.865 302.927, 143.769 303.927, 143.601 304.130 C 143.432 304.334, 140.312 310.125, 136.666 317 C 133.020 323.875, 128.872 331.525, 127.447 334 C 125.210 337.887, 125.170 338.091, 127.151 335.500 C 133.015 327.829, 140.406 321.072, 145.176 319.020 C 152.661 315.800, 163.589 313.786, 171.311 314.204 C 178.942 314.617, 178.674 315.155, 175.150 306.500 C 174.030 303.750, 172.878 300.712, 172.588 299.750 C 172.011 297.827, 169.281 297.612, 164.500 299.115 M 216.562 346.900 C 216.023 347.772, 218.601 370.759, 219.985 377.429 C 220.604 380.409, 221.648 383.274, 222.305 383.797 C 222.962 384.320, 227.300 385.068, 231.944 385.459 C 236.588 385.851, 242.111 386.861, 244.217 387.703 C 248.366 389.364, 254.725 396.055, 255.648 399.732 C 256.637 403.675, 265.240 404.313, 265.789 400.484 C 265.998 399.026, 265.236 398.150, 263.039 397.321 C 260.569 396.389, 260 395.603, 260 393.126 C 260 390.151, 260.617 389.228, 264.301 386.692 C 265.932 385.569, 264.884 384.181, 253.176 371.949 C 246.067 364.522, 238.282 357.141, 235.876 355.547 C 233.469 353.952, 230.600 351.637, 229.500 350.402 C 227.558 348.221, 217.438 345.482, 216.562 346.900 M 87.900 366.293 C 83.243 370.553, 75.564 380.298, 79.702 376.698 C 81.716 374.945, 81.830 374.969, 83.886 377.583 C 85.049 379.061, 86.015 380.772, 86.033 381.385 C 86.051 381.998, 87.623 378.450, 89.526 373.500 C 91.428 368.550, 92.876 363.957, 92.742 363.293 C 92.609 362.629, 90.430 363.979, 87.900 366.293 M 74.872 381.750 C 73.629 383.336, 73.664 383.371, 75.250 382.128 C 76.213 381.373, 77 380.585, 77 380.378 C 77 379.555, 76.179 380.084, 74.872 381.750 M 278.128 393.916 C 277.374 394.385, 276.924 395.256, 277.128 395.852 C 277.352 396.506, 278.044 396.598, 278.872 396.084 C 279.626 395.615, 280.076 394.744, 279.872 394.148 C 279.648 393.494, 278.956 393.402, 278.128 393.916 M 200.813 402.683 C 201.534 402.972, 202.397 402.936, 202.729 402.604 C 203.061 402.272, 202.471 402.036, 201.417 402.079 C 200.252 402.127, 200.015 402.364, 200.813 402.683 M 195.813 403.683 C 196.534 403.972, 197.397 403.936, 197.729 403.604 C 198.061 403.272, 197.471 403.036, 196.417 403.079 C 195.252 403.127, 195.015 403.364, 195.813 403.683" stroke="none" fill="black" fill-rule="evenodd"/>
</svg>