<?xml version="1.0" standalone="no"?>
<!DOCTYPE svg PUBLIC "-//W3C//DTD SVG 20010904//EN"
 "http://www.w3.org/TR/2001/REC-SVG-20010904/DTD/svg10.dtd">
<svg version="1.0" xmlns="http://www.w3.org/2000/svg"
 width="102.000000pt" height="28.000000pt" viewBox="0 0 102.000000 28.000000"
 preserveAspectRatio="xMidYMid meet">

<g transform="translate(0.000000,28.000000) scale(0.100000,-0.100000)"
fill="#000000" stroke="none">
<path d="M0 193 l1 -88 26 30 c22 25 24 31 10 33 -20 4 -20 7 -7 33 6 10 21
19 33 19 12 0 30 9 40 20 17 21 47 27 47 11 0 -6 -5 -13 -11 -17 -8 -5 -8 -8
0 -13 14 -9 -14 -51 -34 -51 -17 0 -45 -50 -45 -80 0 -20 1 -21 28 -4 15 9 41
35 57 58 17 22 41 42 53 44 32 5 28 -20 -9 -63 -18 -20 -29 -38 -26 -41 2 -3
24 18 48 45 40 47 79 69 66 39 -3 -7 -13 -30 -22 -52 -11 -27 -13 -37 -4 -34
7 2 16 17 20 32 9 34 37 66 57 66 14 0 14 -20 -3 -65 -4 -11 10 -1 30 23 24
28 45 42 61 42 32 0 30 -7 -8 -47 -24 -25 -29 -36 -20 -45 8 -8 21 -5 51 15
46 31 71 67 46 67 -18 0 -19 5 -5 31 6 10 21 19 33 19 12 0 30 9 40 20 17 21
47 27 47 11 0 -6 -5 -13 -11 -17 -8 -5 -8 -8 0 -13 14 -9 -14 -51 -34 -51 -17
0 -45 -50 -45 -80 0 -21 0 -21 31 -3 17 10 42 32 56 48 22 25 23 31 9 33 -19
4 -19 7 -6 33 6 10 21 19 33 19 12 0 30 9 40 20 17 21 47 27 47 11 0 -6 -5
-13 -11 -17 -8 -5 -8 -8 0 -13 14 -9 -14 -51 -34 -51 -17 0 -45 -50 -45 -80 0
-21 1 -21 30 -3 17 9 33 25 36 35 8 27 63 68 90 68 27 0 41 -33 29 -70 -6 -19
-5 -20 13 -11 13 7 18 18 15 33 -7 37 24 58 75 51 48 -6 53 -21 22 -60 -27
-34 -27 -57 -1 -43 38 20 45 9 13 -20 -55 -51 -98 -30 -67 33 19 39 11 47 -15
15 -11 -14 -37 -33 -59 -41 -22 -9 -42 -21 -46 -27 -11 -18 -54 -11 -65 10
-11 20 -11 20 -44 -5 -18 -14 -43 -25 -54 -25 -18 0 -22 6 -22 31 l0 30 -37
-30 c-21 -17 -48 -31 -60 -31 -19 0 -23 5 -23 32 l0 32 -28 -27 c-35 -34 -69
-35 -83 -4 -13 28 -48 26 -75 -4 -25 -27 -64 -25 -64 3 l0 22 -16 -22 c-19
-27 -50 -29 -66 -3 -11 19 -13 18 -43 -5 -46 -35 -73 -32 -78 9 -3 24 -4 21
-5 -15 l-2 -48 510 0 510 0 0 140 0 140 -510 0 -510 0 0 -87z m470 48 c0 -23
-14 -41 -31 -41 -19 0 -27 29 -12 43 10 10 43 8 43 -2z"/>
<path d="M746 124 c-19 -18 -22 -58 -4 -52 7 3 15 19 19 36 7 37 6 38 -15 16z"/>
</g>
</svg>
